<svg id="组_1098" data-name="组 1098" xmlns="http://www.w3.org/2000/svg" width="204.227" height="35.635" viewBox="0 0 204.227 35.635">
  <path id="路径_378" data-name="路径 378" d="M556.77,55.5a15.153,15.153,0,0,0-1.281-.932,3.355,3.355,0,0,1-1.629,1.337,1.715,1.715,0,0,0-.349-.381,2.535,2.535,0,0,0,1.669-1.492h-1.6v-.445h1.686a2.018,2.018,0,0,0,.018-.316V52.78h-.73a4.2,4.2,0,0,1-.528.745,2.37,2.37,0,0,0-.438-.268,4.053,4.053,0,0,0,.925-1.621l.485.1a5.158,5.158,0,0,1-.226.6h2.246v.446H555.8v.494a2.147,2.147,0,0,1-.016.309h1.443v.445h-1.516c-.016.056-.041.114-.057.171.316.178,1.265.762,1.492.924Zm-1.994.227h4.9v3.291h-.543v-.275H555.3v.3h-.527Zm.527.454v.818h3.826v-.818Zm3.826,2.108v-.86H555.3v.86Zm1.232-5.959v2.756h-2.789V52.326Zm-.527.486h-1.752v1.776h1.752Z" transform="translate(-423.374 -23.428)" fill="#3b86ff"/>
  <path id="路径_379" data-name="路径 379" d="M565.443,54.031h-1.4v-.373h1.4v-.413h-1.135V52.88h1.135v-.413h-1.321v-.373h1.321v-.438h.5v.438H567.1v.373h-1.151v.413h1.038v.365h-1.038v.413h1.265v.373h-1.265v.454h-.5Zm-1.37,4.532a4.565,4.565,0,0,0,.7-1.337l.453.194a5.6,5.6,0,0,1-.689,1.4Zm6.161-1.776h-5.609v-.38h5.082v-.535h-4.791v-.365h4.791V55h-5.034v-.389h5.561Zm-1.613,1.687c.388,0,.454-.1.486-.795a1.265,1.265,0,0,0,.486.186c-.081.86-.243,1.07-.932,1.07h-1.8c-.868,0-1.1-.138-1.1-.7V57.16h.536v1.077c0,.2.081.236.583.236Zm-1.354-1.622a4.788,4.788,0,0,1,1.11.86l-.356.308a4.825,4.825,0,0,0-1.087-.892Zm1.678-2.8h-1.411v-.374h1.411v-.429h-1.134V52.88h1.134v-.413h-1.329v-.373h1.329v-.438h.5v.438h1.369v.373h-1.369v.413h1.232v.365h-1.232v.429h1.508v.374h-1.508v.438h-.5Zm1.265,3.1a6.362,6.362,0,0,1,.892,1.476l-.51.17a7.141,7.141,0,0,0-.852-1.5Z" transform="translate(-424.778 -23.431)" fill="#3b86ff"/>
  <path id="路径_380" data-name="路径 380" d="M580.945,53.657a9.464,9.464,0,0,1-1.014,3.283,4.022,4.022,0,0,0,1.6,1.646,1.9,1.9,0,0,0-.381.462,4.314,4.314,0,0,1-1.54-1.605,5.473,5.473,0,0,1-1.922,1.622,2.011,2.011,0,0,0-.332-.478,4.614,4.614,0,0,0,1.961-1.686,10.43,10.43,0,0,1-.762-2.368,5.6,5.6,0,0,1-.576,1.03,5.146,5.146,0,0,0-.421-.348,6.577,6.577,0,0,1-1.249,1.062v.43c.568-.065,1.151-.121,1.735-.186v.47l-1.735.2v1.265c0,.292-.056.421-.259.5a3.582,3.582,0,0,1-1.078.089,2.226,2.226,0,0,0-.171-.478c.414.016.754.008.86,0s.138-.024.138-.122v-1.2c-.616.074-1.192.138-1.662.195l-.065-.495c.471-.049,1.071-.106,1.727-.179v-.624a5.385,5.385,0,0,0,.972-.754h-.915a9.218,9.218,0,0,1-1.435,1.07,4.243,4.243,0,0,0-.381-.413,6.968,6.968,0,0,0,1.013-.657h-.315v-.438h.835c.211-.194.421-.413.616-.632h-2.108v-.478h1.434v-.843h-1.094v-.471h1.094v-.875h.5v.875h1.046v.471h-1.046v.843h.551a8.39,8.39,0,0,0,1.078-1.994l.5.138a10,10,0,0,1-.972,1.856h.8v.478h-1.142a7.051,7.051,0,0,1-.543.632h.908l.1-.032.291.211a8.949,8.949,0,0,0,1.265-3.469l.535.081a12.264,12.264,0,0,1-.333,1.419h2.408v.5Zm-2.059.032a10.949,10.949,0,0,0,.754,2.659,9.7,9.7,0,0,0,.753-2.691h-1.5Z" transform="translate(-426.11 -23.429)" fill="#3b86ff"/>
  <path id="路径_381" data-name="路径 381" d="M591.637,52.954h-2.262c.624.494,1.451,1.159,1.889,1.564l-.439.316c-.154-.154-.381-.365-.632-.584-4.134.243-4.532.268-4.8.365a3.675,3.675,0,0,0-.185-.559,1.214,1.214,0,0,0,.535-.251,7.9,7.9,0,0,0,1.046-.851h-2.222v-.479h3.4c-.114-.235-.275-.5-.4-.721l.527-.153c.17.267.374.615.519.875h3.032ZM590.551,58.4c0,.333-.1.478-.374.559a7.886,7.886,0,0,1-1.548.065,2.185,2.185,0,0,0-.2-.445c.616.016,1.208.016,1.362.008s.211-.049.211-.186v-.778h-3.786v1.419h-.536V54.988h4.865Zm-4.329-2.951v.673h3.786V55.45Zm3.786,1.759v-.673h-3.786v.673Zm-.3-3.38c-.276-.236-.559-.454-.811-.657l.341-.218h-1.661A10.145,10.145,0,0,1,586.294,54Z" transform="translate(-427.514 -23.423)" fill="#3b86ff"/>
  <path id="路径_382" data-name="路径 382" d="M602.233,51.82c-.049.121-.1.226-.154.348a20.7,20.7,0,0,1,1.9,2.181l-.4.356a16.609,16.609,0,0,0-1.744-2.1,7.976,7.976,0,0,1-2.01,2.343,3.03,3.03,0,0,0-.4-.365,7.22,7.22,0,0,0,2.319-2.91Zm.608,6.631c.381,0,.438-.186.478-1.151a1.711,1.711,0,0,0,.487.2c-.074,1.119-.236,1.42-.933,1.42h-1.54c-.745,0-.981-.163-.981-.827V54.609h2.9s-.008.154-.016.227c-.082,1.4-.161,1.938-.34,2.132a.59.59,0,0,1-.446.2,6.493,6.493,0,0,1-.786,0,1.224,1.224,0,0,0-.138-.471,6.77,6.77,0,0,0,.706.032.286.286,0,0,0,.235-.073,3.956,3.956,0,0,0,.243-1.564H600.87V58.1c0,.3.081.356.5.356Zm2.083-1.4h-.51V52.6h.51Zm1.605-5.269v6.51c0,.389-.114.535-.357.624a4.94,4.94,0,0,1-1.434.1,1.936,1.936,0,0,0-.2-.51c.576.016,1.087.009,1.241.009s.211-.057.211-.211V51.78Z" transform="translate(-429.495 -23.433)" fill="#3b86ff"/>
  <path id="路径_383" data-name="路径 383" d="M611.07,56.6a5.1,5.1,0,0,1-.835,1.54,3.429,3.429,0,0,0-.381-.284,3.7,3.7,0,0,0,.77-1.369Zm.981-.438V58.29c0,.268-.057.389-.227.478a2.229,2.229,0,0,1-.827.081,1.569,1.569,0,0,0-.154-.462c.275.009.519.009.608,0s.106-.024.106-.1V56.166H609.91V55.7h1.646v-.884h-1.678v-.461h2.246a12.458,12.458,0,0,0,.462-1.33l.494.114c-.138.4-.308.86-.462,1.217h1.063v.461h-1.629V55.7h1.54v.471Zm1.5-3.2H610V52.5h1.629c-.106-.244-.244-.527-.365-.754l.478-.13a7.529,7.529,0,0,1,.454.884h1.354Zm-2.675,1.362a4.524,4.524,0,0,0-.324-1.192l.43-.1a3.977,3.977,0,0,1,.356,1.167Zm1.9,2.132a7.467,7.467,0,0,1,.681,1.3l-.389.211a8.079,8.079,0,0,0-.672-1.313Zm4.427-1.581h-.917V59h-.518V54.877h-1.313v.3a6.842,6.842,0,0,1-.851,3.785,1.631,1.631,0,0,0-.414-.332,6.059,6.059,0,0,0,.771-3.453V52.429a14.244,14.244,0,0,0,2.53-.625l.438.389a13.153,13.153,0,0,1-2.473.592v1.589h2.748Z" transform="translate(-430.884 -23.425)" fill="#3b86ff"/>
  <path id="路径_384" data-name="路径 384" d="M624.412,55.524a8.239,8.239,0,0,0,3.13,2.594,3.036,3.036,0,0,0-.381.454,9.093,9.093,0,0,1-3.088-2.7v3.17h-.56V55.921a8.9,8.9,0,0,1-3.048,2.65,4,4,0,0,0-.389-.454,7.977,7.977,0,0,0,3.113-2.594h-2.9v-.535h3.227v-1.46h-2.651V53h2.651V51.665h.56V53h2.74v.527h-2.74v1.46h3.291v.535Z" transform="translate(-432.247 -23.432)" fill="#3b86ff"/>
  <path id="路径_385" data-name="路径 385" d="M634.755,55.749a8.449,8.449,0,0,0,3.089,2.506,2.554,2.554,0,0,0-.374.445,9.039,9.039,0,0,1-3.1-2.692v3.024h-.559v-3a9.08,9.08,0,0,1-3.065,2.643,2.517,2.517,0,0,0-.381-.446,8.085,8.085,0,0,0,3.065-2.481h-2.9v-.51h3.283V53.164h-2.895v-.519h2.895v-.989h.559v.989h2.975v.519h-2.975v2.075h3.308v.51Zm-2.7-2.367a5.622,5.622,0,0,1,.787,1.532l-.5.2a6.4,6.4,0,0,0-.746-1.556Zm3.3,1.6a10.144,10.144,0,0,0,.836-1.638l.559.186a15.417,15.417,0,0,1-.94,1.614Z" transform="translate(-433.618 -23.431)" fill="#3b86ff"/>
  <path id="路径_386" data-name="路径 386" d="M587.366,40.073l-1.41,5.568h-3.745l1.41-5.568Z" transform="translate(-427.2 -21.887)" fill="#3b86ff"/>
  <path id="路径_387" data-name="路径 387" d="M601.858,45.689H591.366a2.638,2.638,0,0,1-.588-.073,2.567,2.567,0,0,1-.6-.218,1.554,1.554,0,0,1-.477-.378.814.814,0,0,1-.2-.547v-4.4h3.769v3.161h3.665l-.836-3.17h4.21Z" transform="translate(-428.172 -21.885)" fill="#3b86ff"/>
  <path id="路径_388" data-name="路径 388" d="M605.6,22.179v-2.31h-4.061V19.48h-3.768v.389H589.9V19.48h-3.769v.389h-3.915v2.31h3.915v.633h-3.915v1.994h3.915v.632h-3.915v2.31h3.915v.438H589.9v-.438h7.878v.438h3.768v-.438H605.6v-2.31h-4.061v-.632H605.6V22.812h-4.061v-.633Zm-7.83.633h-3.259v1.994h3.259v.632H589.9v-.632h3.282V22.812H589.9v-.633h7.878Z" transform="translate(-427.2 -19.142)" fill="#3b86ff"/>
  <path id="路径_389" data-name="路径 389" d="M607.082,40.073l1.337,5.568h-3.745l-1.338-5.568Z" transform="translate(-430.016 -21.887)" fill="#ffb533"/>
  <path id="路径_390" data-name="路径 390" d="M627,24.878V23.687h-7.149v1.191h-3.793V23.687h-3.964V20.672h3.964V19.48h3.793v1.192H627V19.48h3.769v1.192h3.988v3.015h-3.988v1.191Z" transform="translate(-431.183 -19.142)" fill="#3b86ff"/>
  <rect id="矩形_1492" data-name="矩形 1492" width="3.55" height="7.757" transform="translate(180.908 6.223)" fill="#3b86ff"/>
  <rect id="矩形_1493" data-name="矩形 1493" width="3.769" height="7.757" transform="translate(186.476 6.223)" fill="#3b86ff"/>
  <path id="路径_391" data-name="路径 391" d="M629.348,29.53v.731l7.222.9v2.526l-6.578-.82a.574.574,0,0,0-.645.57v.588h-3.62v-5.84a1.917,1.917,0,0,1,1.917-1.917h8.925v2.69h-6.652A.57.57,0,0,0,629.348,29.53Z" transform="translate(-433 -20.047)" fill="#3b86ff"/>
  <path id="路径_392" data-name="路径 392" d="M634.753,35.949v9.07H612.09V37.871a1.922,1.922,0,0,1,1.922-1.922Zm-4.283,2.65H617.81a1.531,1.531,0,0,0-1.531,1.531v2.238H618.7V39.79h3.55v2.578H624.5V39.79h3.55v2.578h2.417Z" transform="translate(-431.183 -21.337)" fill="#3b86ff"/>
  <path id="路径_393" data-name="路径 393" d="M582.211,29.889v2.455h19.21v2.777a.579.579,0,0,1-.579.579H582.211v2.481h21.47a1.922,1.922,0,0,0,1.922-1.921v-6.37Z" transform="translate(-427.2 -20.529)" fill="#3b86ff"/>
  <rect id="矩形_1494" data-name="矩形 1494" width="18.193" height="2.018" transform="translate(155.011 12.496)" fill="#3b86ff"/>
  <path id="路径_394" data-name="路径 394" d="M557.782,23.212v2.066H553.1v2.65h3.209l-1.07,1.314H553.1v2.869h3.307a2,2,0,0,0,.768-.146,1.637,1.637,0,0,0,.622-.462l1.781-2.189,1.095,2.8h4.3l-1.667-3.526h-3.171l.536-.657h4.3v-2.65h-3.429V23.212h3.429V20.561h-7.927l.2-1h-3.283l-.875,3.648" transform="translate(-423.318 -19.153)" fill="#3b86ff"/>
  <path id="路径_395" data-name="路径 395" d="M569.994,20.181a2.329,2.329,0,0,0-.729.121,2.536,2.536,0,0,0-.669.341,1.866,1.866,0,0,0-.5.535,1.365,1.365,0,0,0-.194.73V32.145h7.878a2.309,2.309,0,0,0,.73-.121,2.705,2.705,0,0,0,.68-.341,1.786,1.786,0,0,0,.51-.535,1.369,1.369,0,0,0,.2-.73V20.181Zm4.135,8.973h-2.457V23.172h2.457Z" transform="translate(-425.293 -19.235)" fill="#ffb533"/>
  <path id="路径_396" data-name="路径 396" d="M553.089,36.793v2.366a1.943,1.943,0,0,0,1.943,1.943H557v.005h13.728V38.676H556.858v-.948h14.784v4.3H556.858v-.008h-3.769v2.853H574a1.92,1.92,0,0,0,1.921-1.921V34.883H555A1.911,1.911,0,0,0,553.089,36.793Z" transform="translate(-423.318 -21.195)" fill="#3b86ff"/>
  <path id="路径_397" data-name="路径 397" d="M488.669,40.343c-4.328,0-6.72-3.222-5.316-7.159q1.238-3.467,2.474-6.932c1.4-3.937,6.095-7.159,10.423-7.159h15.739c4.329,0,6.721,3.222,5.316,7.159l-1.1,3.09a3.168,3.168,0,0,1-2.8,1.923h-3.8a1.365,1.365,0,0,1-1.493-1.707c.305-1.6-.55-3.489-2.382-3.489h-8.481c-4.057,0-6.657,7.3-2.6,7.3H506.9c4.328,0,6.721,3.222,5.316,7.16l-2.473,6.932c-1.4,3.937-6.095,7.159-10.424,7.159H483.578c-4.329,0-6.721-3.222-5.316-7.159l1.1-3.09a3.169,3.169,0,0,1,2.8-1.923h3.8a1.364,1.364,0,0,1,1.492,1.707c-.3,1.6.55,3.489,2.382,3.489h8.482c4.056,0,6.656-7.3,2.6-7.3Zm-29.835-21.25a11.862,11.862,0,0,0-10.49,7.306L441.012,47.31c-1.409,4.019,1.005,7.307,5.366,7.307h15.857a11.863,11.863,0,0,0,10.49-7.307L480.056,26.4c1.409-4.019-1.005-7.306-5.367-7.306Zm1.188,7.089h8.25a2.7,2.7,0,0,1,2.5,3.773l-4.839,13.8c-.656,1.869-2.858,3.865-4.887,3.865H452.8a2.772,2.772,0,0,1-2.5-3.865l4.84-13.8c.656-1.872,2.855-3.773,4.887-3.773Zm-26.2,12.47c-1.908-2.105-7-7.688-7.282-8-.228-.025-.471-.04-.7-.055.328-1.543,1.539-6.691,4.5-3.463,3.175,3.466,3.425,3.741,7.828,8.55.286.016.426.031.708.048-.283,1.945-1.791,6.568-5.053,2.916Zm-8.37,10.022c6.886,7.71,10.07-2.051,10.669-6.158-.6-.035-.893-.065-1.5-.1C425.331,32.26,424.8,31.68,418.1,24.361c-6.245-6.816-8.8,4.054-9.492,7.312.475.032.991.063,1.472.116.6.652,11.348,12.438,15.376,16.884Zm-14.113,4.583c-1.908-2.105-7-7.688-7.282-8-.228-.025-.472-.04-.7-.055.328-1.544,1.538-6.692,4.5-3.463,3.176,3.466,3.426,3.741,7.828,8.55.286.016.427.031.709.048-.283,1.945-1.792,6.568-5.053,2.916Zm2.6-7c-1.908-2.1-7-7.687-7.282-8-.228-.025-.471-.04-.7-.055.329-1.543,1.538-6.691,4.5-3.463,3.175,3.466,3.425,3.741,7.828,8.55.286.016.426.031.709.048-.283,1.944-1.792,6.568-5.054,2.916Zm22.484-14.6c-1.908-2.105-7-7.687-7.282-8-.228-.024-.471-.04-.7-.055.328-1.544,1.539-6.691,4.5-3.463,3.175,3.466,3.425,3.742,7.828,8.551.286.016.426.03.708.047C441.193,30.676,439.685,35.3,436.423,31.648Z" transform="translate(-403.361 -19.09)" fill="#3b86ff" fill-rule="evenodd"/>
</svg>
