<svg xmlns="http://www.w3.org/2000/svg" width="143.19" height="18.5" viewBox="0 0 143.19 18.5">
  <g id="nos白色" transform="translate(-407.629 -88.994)">
    <path id="路径_2" data-name="路径 2" d="M451.76,99.989c-2.239,0-3.477-1.666-2.75-3.7L450.29,92.7a6.1,6.1,0,0,1,5.392-3.7h8.143c2.239,0,3.476,1.667,2.75,3.7l-.569,1.6a1.64,1.64,0,0,1-1.449.995H462.59a.706.706,0,0,1-.773-.883,1.412,1.412,0,0,0-1.232-1.8H456.2c-2.1,0-3.444,3.776-1.347,3.776h6.339c2.24,0,3.477,1.667,2.75,3.7l-1.279,3.586a6.1,6.1,0,0,1-5.392,3.7h-8.143c-2.24,0-3.477-1.667-2.751-3.7l.571-1.6a1.637,1.637,0,0,1,1.449-1h1.966a.705.705,0,0,1,.772.883,1.413,1.413,0,0,0,1.233,1.805h4.387c2.1,0,3.444-3.777,1.347-3.777ZM436.326,89a6.135,6.135,0,0,0-5.426,3.78l-3.794,10.818a2.7,2.7,0,0,0,2.776,3.781h8.2a6.139,6.139,0,0,0,5.427-3.781L447.3,92.775A2.7,2.7,0,0,0,444.529,89Zm.615,3.667h4.268a1.4,1.4,0,0,1,1.294,1.952l-2.5,7.14a3.112,3.112,0,0,1-2.528,2H433.2a1.434,1.434,0,0,1-1.293-2l2.5-7.14a3.055,3.055,0,0,1,2.528-1.952Zm-13.554,6.452c-.987-1.089-3.621-3.978-3.767-4.137-.118-.013-.244-.02-.361-.029.17-.8.8-3.461,2.327-1.791l4.049,4.423c.148.008.221.016.367.024-.147,1.006-.927,3.4-2.615,1.509Zm-4.33,5.184c3.562,3.989,5.21-1.061,5.519-3.186-.308-.018-.462-.033-.774-.052-4.809-5.253-5.083-5.554-8.551-9.34-3.23-3.525-4.552,2.1-4.911,3.783.246.016.513.033.762.06.309.338,5.871,6.435,7.955,8.735Zm-7.3,2.371c-.987-1.089-3.622-3.978-3.768-4.137-.118-.012-.245-.02-.36-.028.169-.8.795-3.462,2.325-1.792l4.05,4.423c.148.009.221.016.366.024-.146,1.006-.926,3.4-2.613,1.509Zm1.344-3.624c-.987-1.089-3.621-3.977-3.767-4.137-.118-.013-.245-.02-.361-.028.17-.8.8-3.462,2.325-1.792,1.643,1.792,1.773,1.935,4.05,4.423.147.008.221.016.366.024-.147,1.006-.927,3.4-2.614,1.508Zm11.632-7.556c-.987-1.089-3.621-3.977-3.768-4.136-.118-.013-.244-.021-.36-.029.169-.8.8-3.462,2.325-1.792,1.643,1.793,1.773,1.935,4.05,4.423.149.008.221.016.367.024C427.2,94.988,426.419,97.38,424.733,95.49Z" transform="translate(0)" fill="#fff" fill-rule="evenodd"/>
    <path id="路径_3" data-name="路径 3" d="M587.136,105.293c-.063,1.585.7,2.3,2.533,2.132H591.5v-2.051h-.364c-.369.056-.584-.189-.643-.738l-.462-3.854h-3.266l.368,4.512Zm-6.373-2.87c-.12,1.473.611,2.16,2.2,2.051h3.128v-2.135h-1.377c-.552.056-.794-.137-.732-.574v-.9h-3.219v1.561Zm-4.176-1.642h3.081v3.693a.65.65,0,0,0,.737.735h5.687v2.216h-7.763c-1.222.056-1.8-.654-1.742-2.132v-4.512Zm-4.258,0-.732,3.854c-.184.493-.4.738-.646.738h-.364v2.135h1.926c1.53.052,2.139-.521,2.265-1.722l.916-5.005Zm-.406-.822h16.368c1.836.112,2.5-.711,2.374-2.46V89.05H571.924V99.959Zm3.068-8.61h4.493v2.032h-4.493V91.349Zm7.887,2.032V91.349h4.5v2.032Zm-3.394,2.151v2.131h-4.4V95.532Zm7.891,1.477c.059.491-.184.711-.736.654h-3.762V95.532h4.5v1.477Zm-43.365-5.6H549.7V89.295H544.01V91.41Zm11.669-.884L555.4,89.05h-3.175l.283,1.476h-1.681V92.6h13.911V90.526h-1.119l.279-1.476h-3.175l-.279,1.476Zm-9.924,6.513v8.819c-.124,1.2.4,1.749,1.585,1.64h3.674v-2.165h-1.59c-.31,0-.465-.137-.465-.41v-10h-5.043v2.118Zm5.072.012V94.938h2.729l.5-1.688h3.267l-.505,1.688h8.017v2.108H556.3l-.446,1.762h8.791v6.723c.127,1.368-.621,1.994-2.239,1.886H552.221v-4.152h-2.144l.014-3.176h1.494c.622.08.673-.306.8-.768l.648-2.267Zm10.645,7.845V100.94H555.42v4.37H561C561.374,105.31,561.53,105.173,561.471,104.9Z" transform="translate(-40.683 -0.018)" fill="#fff" fill-rule="evenodd"/>
    <path id="路径_4" data-name="路径 4" d="M505.268,90.617V106.05h8.644v1.383h3.44v-1.462h6.136q2.607.161,2.42-2.277V90.617h-8.462V89.155h-3.721v1.462Zm8.553,2.679v10.238h-5.113V93.3Zm3.531,10.155V93.3h5.113v9.669c0,.378-.122.541-.369.486Z" transform="translate(-29.631 -0.052)" fill="#fff"/>
  </g>
</svg>
