<svg xmlns="http://www.w3.org/2000/svg" xmlns:xlink="http://www.w3.org/1999/xlink" width="16" height="13.712" viewBox="0 0 16 13.712">
  <defs>
    <clipPath id="clip-path">
      <rect width="16" height="13.712" fill="none"/>
    </clipPath>
    <clipPath id="clip-path-2">
      <path id="Mask" d="M12.1-13.712a.559.559,0,0,0-.558.559v.441H4.455v-.441a.559.559,0,0,0-.557-.559.559.559,0,0,0-.557.559v.441H1.283A1.285,1.285,0,0,0,0-11.427V-1.285A1.285,1.285,0,0,0,1.283,0H14.718A1.285,1.285,0,0,0,16-1.285V-11.427a1.289,1.289,0,0,0-1.284-1.285H12.658v-.441A.559.559,0,0,0,12.1-13.712Zm0,3.133a.559.559,0,0,0,.557-.559v-.289h2.06v1.751H1.283v-1.751h2.06v.289a.559.559,0,0,0,.557.559.559.559,0,0,0,.557-.559v-.289h7.088v.289A.559.559,0,0,0,12.1-10.58ZM1.283-1.285V-8.564H14.718v7.278ZM11.345-7.475H4.653a.559.559,0,0,0-.557.559.559.559,0,0,0,.557.559h6.694a.559.559,0,0,0,.557-.559A.562.562,0,0,0,11.345-7.475Zm0,3.027H4.653a.559.559,0,0,0-.557.559.559.559,0,0,0,.557.559h6.694a.559.559,0,0,0,.557-.559A.562.562,0,0,0,11.345-4.448Z" transform="translate(0 13.713)" fill="#ffffff"/>
    </clipPath>
  </defs>
  <g id="日期" clip-path="url(#clip-path)">
    <g id="_Color_Caption" data-name="↳Color/Caption" transform="translate(0 0)">
      <path id="Mask-2" data-name="Mask" d="M12.1-13.712a.559.559,0,0,0-.558.559v.441H4.455v-.441a.559.559,0,0,0-.557-.559.559.559,0,0,0-.557.559v.441H1.283A1.285,1.285,0,0,0,0-11.427V-1.285A1.285,1.285,0,0,0,1.283,0H14.718A1.285,1.285,0,0,0,16-1.285V-11.427a1.289,1.289,0,0,0-1.284-1.285H12.658v-.441A.559.559,0,0,0,12.1-13.712Zm0,3.133a.559.559,0,0,0,.557-.559v-.289h2.06v1.751H1.283v-1.751h2.06v.289a.559.559,0,0,0,.557.559.559.559,0,0,0,.557-.559v-.289h7.088v.289A.559.559,0,0,0,12.1-10.58ZM1.283-1.285V-8.564H14.718v7.278ZM11.345-7.475H4.653a.559.559,0,0,0-.557.559.559.559,0,0,0,.557.559h6.694a.559.559,0,0,0,.557-.559A.562.562,0,0,0,11.345-7.475Zm0,3.027H4.653a.559.559,0,0,0-.557.559.559.559,0,0,0,.557.559h6.694a.559.559,0,0,0,.557-.559A.562.562,0,0,0,11.345-4.448Z" transform="translate(0 13.713)" fill="#ffffff"/>
    </g>
  </g>
</svg>
