<svg xmlns="http://www.w3.org/2000/svg" width="19.194" height="19.388" viewBox="0 0 19.194 19.388">
  <defs>
    <style>
      .cls-1 {
        fill: #3b86ff;
      }
    </style>
  </defs>
  <path id="笑脸" class="cls-1" d="M24.512,6.884A9.679,9.679,0,0,0,19.4,1.724,9.527,9.527,0,0,0,8.883,3.8a9.753,9.753,0,0,0,3.052,15.792,9.6,9.6,0,0,0,12.577-5.159,9.811,9.811,0,0,0,0-7.55Zm-5.051.047A1.37,1.37,0,1,1,18.1,8.3,1.363,1.363,0,0,1,19.461,6.931Zm-7.58-.026a1.375,1.375,0,1,1-1.354,1.367,1.366,1.366,0,0,1,1.354-1.367Zm8.83,6.785a6.2,6.2,0,0,1-2.168,1.836,6.351,6.351,0,0,1-5.748,0,6.19,6.19,0,0,1-2.165-1.835.68.68,0,1,1,1.09-.814,4.954,4.954,0,0,0,7.9,0,.68.68,0,1,1,1.088.815Z" transform="translate(-6.073 -0.966)"/>
</svg>
