<svg xmlns="http://www.w3.org/2000/svg" width="13" height="13.001" viewBox="0 0 13 13.001">
  <path id="联合_22" data-name="联合 22" d="M-3198.635,1957H-3205v-7.944h1.445A5.061,5.061,0,0,1-3198.5,1944a5.061,5.061,0,0,1,5.055,5.055H-3192V1957h-6.546v0Zm-1.309-4.694a1.451,1.451,0,0,0,.722,1.251v.915a.723.723,0,0,0,.723.723.723.723,0,0,0,.722-.723v-.915a1.449,1.449,0,0,0,.723-1.251,1.446,1.446,0,0,0-1.445-1.445A1.446,1.446,0,0,0-3199.945,1952.305Zm5.055-3.25a3.615,3.615,0,0,0-3.611-3.611,3.615,3.615,0,0,0-3.611,3.611Z" transform="translate(3205 -1944)" fill="#fff"/>
</svg>
