<?xml version="1.0" standalone="no"?>
<!DOCTYPE svg PUBLIC "-//W3C//DTD SVG 1.1//EN" "http://www.w3.org/Graphics/SVG/1.1/DTD/svg11.dtd">
<svg t="1591770792814" class="icon" viewBox="0 0 1024 1024" version="1.1" xmlns="http://www.w3.org/2000/svg" p-id="728" xmlns:xlink="http://www.w3.org/1999/xlink" width="32" height="32">
<defs>
<style type="text/css"></style>
</defs>
<path d="M710.016 624.725333a477.866667 477.866667 0 0 0-181.461333-0.981333 312.661333 312.661333 0 0 0-141.696 63.786667 224.896 224.896 0 0 1 182.101333 198.741333c117.632 0 245.674667 0 365.866667-0.384a14.976 14.976 0 0 0 11.392-5.205333 15.018667 15.018667 0 0 0 3.584-11.989334 292.650667 292.650667 0 0 0-239.744-244.010666z" fill="#fff" p-id="729"></path><path d="M377.045333 707.370667a327.424 327.424 0 0 0-124.16-0.64 199.808 199.808 0 0 0-167.466666 167.936 10.154667 10.154667 0 0 0 2.517333 8.192 10.282667 10.282667 0 0 0 7.808 3.498666h72.106667c105.301333 0 240.170667 0 362.965333-0.298666a10.282667 10.282667 0 0 0 7.765333-3.498667 10.453333 10.453333 0 0 0 2.432-8.192 200.149333 200.149333 0 0 0-163.968-166.997333z" fill="#fff" p-id="730"></path><path d="M617.472 330.581333m-220.373333 0a220.373333 220.373333 0 1 0 440.746666 0 220.373333 220.373333 0 1 0-440.746666 0Z" fill="#fff" p-id="731"></path><path d="M291.456 529.578667m-122.453333 0a122.453333 122.453333 0 1 0 244.906666 0 122.453333 122.453333 0 1 0-244.906666 0Z" fill="#fff" p-id="732"></path></svg>