<svg xmlns="http://www.w3.org/2000/svg" xmlns:xlink="http://www.w3.org/1999/xlink" width="32" height="32" viewBox="0 0 32 32">
  <defs>
    <style>
      .cls-1 {
        fill: none;
      }

      .cls-2 {
        fill: #f0f0f7;
      }

      .cls-3 {
        clip-path: url(#clip-path);
      }

      .cls-4 {
        fill: #3b86ff;
      }
    </style>
    <clipPath id="clip-path">
      <rect class="cls-1" width="24" height="24"/>
    </clipPath>
  </defs>
  <g id="打印预览-小" transform="translate(-1590 -291)">
    <rect id="矩形_1898" data-name="矩形 1898" class="cls-2" width="32" height="32" transform="translate(1590 291)"/>
    <g id="打印预览_2" data-name="打印预览 – 2" class="cls-3" transform="translate(1594 295)">
      <g id="组_1247" data-name="组 1247" transform="translate(-15338.5 -1522.5)">
        <path id="减去_10" data-name="减去 10" class="cls-4" d="M12.03,20.993H0V0H20.993l0,12.037-.017.017H17.994V3H3v15h9.056v2.975l-.024.024Z" transform="translate(15340 1524)"/>
        <g id="组_1246" data-name="组 1246" transform="translate(15343.085 1527.085)">
          <path id="路径_1561" data-name="路径 1561" class="cls-4" d="M3.988,4.268V0H6.646V4.268a5.268,5.268,0,0,1,3.987,5.117A5.317,5.317,0,1,1,0,9.386,5.212,5.212,0,0,1,3.988,4.268Zm1.329,9.1A3.988,3.988,0,1,0,1.329,9.386,4,4,0,0,0,5.317,13.373Z" transform="translate(17.915 10.396) rotate(135)"/>
        </g>
      </g>
      <rect id="矩形_1895" data-name="矩形 1895" class="cls-1" width="24" height="24"/>
    </g>
  </g>
</svg>
