<svg xmlns="http://www.w3.org/2000/svg" xmlns:xlink="http://www.w3.org/1999/xlink" width="24" height="24" viewBox="0 0 24 24">
  <defs>
    <clipPath id="clip-path">
      <rect width="24" height="24" fill="none"/>
    </clipPath>
  </defs>
  <g id="组件_36_1" data-name="组件 36 – 1" clip-path="url(#clip-path)">
    <path id="路径_1602" data-name="路径 1602" d="M185.76,185.892l1.575.394,1.313-2.231-1.05-1.181a8.073,8.073,0,0,0,.131-1.706,6.39,6.39,0,0,0-.131-1.575l1.05-1.181-1.312-2.231-1.575.394A7.2,7.2,0,0,0,183,175l-.525-1.706h-2.625l-.525,1.575a5.841,5.841,0,0,0-2.756,1.575L175,176.048l-1.312,2.231,1.05,1.181a8.073,8.073,0,0,0-.131,1.706,6.39,6.39,0,0,0,.131,1.575l-1.05,1.181L175,186.154l1.575-.394a7.2,7.2,0,0,0,2.756,1.575l.525,1.706h2.625l.525-1.575A5.841,5.841,0,0,0,185.76,185.892Zm1.181,2.494a8.358,8.358,0,0,1-2.362,1.313l-.788,1.969h-5.25l-.787-1.969a10.076,10.076,0,0,1-2.363-1.312l-2.1.394-2.625-4.594,1.313-1.575v-1.444a4.047,4.047,0,0,1,.131-1.312l-1.312-1.575,2.625-4.594,2.1.394a8.359,8.359,0,0,1,2.362-1.312l.656-2.1h5.25l.788,1.969a10.076,10.076,0,0,1,2.362,1.313l2.1-.394,2.625,4.594-1.312,1.575a6.628,6.628,0,0,1,0,2.625l1.313,1.575-2.625,4.594-2.1-.131Zm-5.775-5.906a1.313,1.313,0,1,0-1.312-1.312A1.24,1.24,0,0,0,181.166,182.479Zm0,2.625a3.937,3.937,0,1,1,3.938-3.937A3.867,3.867,0,0,1,181.166,185.1Z" transform="translate(-169.166 -169.167)" fill="#fff"/>
    <rect id="矩形_2005" data-name="矩形 2005" width="24" height="24" fill="none"/>
  </g>
</svg>
