<svg id="时间" xmlns="http://www.w3.org/2000/svg" xmlns:xlink="http://www.w3.org/1999/xlink" width="14" height="14" viewBox="0 0 14 14">
  <defs>
    <clipPath id="clip-path">
      <path id="Mask" d="M7,14a7,7,0,1,1,7-7A7.008,7.008,0,0,1,7,14ZM7,.984A6.018,6.018,0,0,0,1.458,9.342a5.969,5.969,0,0,0,1.289,1.913A5.994,5.994,0,0,0,7,13.016a6.018,6.018,0,0,0,5.542-8.358A6.007,6.007,0,0,0,7,.984Zm3.022,6.891H7.492a.985.985,0,0,1-.984-.984V3.609a.492.492,0,1,1,.984,0V6.891h2.529a.492.492,0,1,1,0,.984Z" fill="#3b86ff"/>
    </clipPath>
  </defs>
  <path id="Mask-2" data-name="Mask" d="M7,14a7,7,0,1,1,7-7A7.008,7.008,0,0,1,7,14ZM7,.984A6.018,6.018,0,0,0,1.458,9.342a5.969,5.969,0,0,0,1.289,1.913A5.994,5.994,0,0,0,7,13.016a6.018,6.018,0,0,0,5.542-8.358A6.007,6.007,0,0,0,7,.984Zm3.022,6.891H7.492a.985.985,0,0,1-.984-.984V3.609a.492.492,0,1,1,.984,0V6.891h2.529a.492.492,0,1,1,0,.984Z" fill="#3b86ff"/>
</svg>
