<svg xmlns="http://www.w3.org/2000/svg" width="24" height="24" viewBox="0 0 24 24">
  <g id="查看" transform="translate(-1865 -402.999)">
    <path id="路径_1637" data-name="路径 1637" d="M95.833,268.6c-4.515,0-8.085-2.1-10.5-6.3,2.415-4.2,5.985-6.3,10.5-6.3s8.085,2.1,10.5,6.3C103.918,266.5,100.348,268.6,95.833,268.6Zm.21-10.5a9.387,9.387,0,0,0-8.085,4.2,9.387,9.387,0,0,0,8.085,4.2,8.692,8.692,0,0,0,7.665-4.2A8.692,8.692,0,0,0,96.043,258.1Zm-.21,7.35a3.15,3.15,0,1,1,3.15-3.15A3.094,3.094,0,0,1,95.833,265.45Zm0-2.1a1.05,1.05,0,1,0-1.05-1.05A.992.992,0,0,0,95.833,263.35Z" transform="translate(1781.167 153)" fill="#3b86ff"/>
    <rect id="矩形_2109" data-name="矩形 2109" width="24" height="24" transform="translate(1865 402.999)" fill="none"/>
  </g>
</svg>
