<svg xmlns="http://www.w3.org/2000/svg" width="19.727" height="19.7" viewBox="0 0 19.727 19.7">
  <defs>
    <style>
      .cls-1 {
        fill: #ffa300;
      }
    </style>
  </defs>
  <path id="感叹号-橙色" class="cls-1" d="M121.873,112.2a9.509,9.509,0,0,1,3.838.779,9.9,9.9,0,0,1,5.234,5.239,9.81,9.81,0,0,1,0,7.676,9.933,9.933,0,0,1-5.234,5.227,9.863,9.863,0,0,1-7.686,0,9.9,9.9,0,0,1-5.246-5.227,9.824,9.824,0,0,1,0-7.676,9.866,9.866,0,0,1,5.246-5.239A9.569,9.569,0,0,1,121.873,112.2Zm-1.209,11.223a1.251,1.251,0,0,0,.34.89,1.116,1.116,0,0,0,.846.363,1.15,1.15,0,0,0,.858-.363,1.23,1.23,0,0,0,.353-.89v-7.358a1.089,1.089,0,0,0-.353-.846,1.233,1.233,0,0,0-.858-.318,1.2,1.2,0,0,0-.858.331,1.121,1.121,0,0,0-.353.856Zm1.189,2.723a1.538,1.538,0,1,0,0,3.076,1.522,1.522,0,0,0,1.1-.451,1.513,1.513,0,0,0,0-2.175A1.52,1.52,0,0,0,121.854,126.146Zm0,0" transform="translate(-112 -112.2)"/>
</svg>
